<?xml version="1.0" standalone="no"?>
<svg xmlns="http://www.w3.org/2000/svg" viewBox="0 0 128.215 36" width="128.215" height="36"><g fill="#ffffff" color="#ffffff" transform="translate(0 6.905279999999998) scale(0.2800001)"><g transform="translate(-0.062, -10.717)"><svg width="100.0" height="79.248" x="0.062" y="10.717" viewBox="0.062 10.717 100 79.248"><path d="M85.852,17.327c1.549-0.289,2.724-1.641,2.724-3.274c0-1.844-1.494-3.336-3.338-3.336h-70.35  c-1.843,0-3.336,1.492-3.336,3.336c0,1.632,1.173,2.985,2.722,3.274L0.062,44.758v5.338c0,2.396,2.54,4.338,5.671,4.338  c1.051,0,2.033-0.224,2.877-0.605v36.136h82.902V53.829c0.846,0.383,1.825,0.605,2.879,0.605c3.131,0,5.67-1.941,5.67-4.338v-5.338  L85.852,17.327z M16.839,54.433c-2.986,0-5.407-1.94-5.407-4.337v-0.5h-0.027v-4.837l10.716-27.369h8.561l-8.435,27.369v5.338  c0,0.001,0,0.002,0,0.002C22.245,52.492,19.825,54.433,16.839,54.433z M38.999,54.433c-2.987,0-5.408-1.94-5.408-4.337v-0.5l0,0  v-4.837l4.479-27.369h8.534l-2.197,27.369v4.837v0.5C44.405,52.491,41.984,54.433,38.999,54.433z M61.154,54.433  c-2.985,0-5.406-1.94-5.406-4.337v-0.5v-4.837l-2.2-27.369h8.508l4.479,27.369v5.338c0,0.073,0.012,0.146,0.016,0.216  C66.407,52.606,64.049,54.433,61.154,54.433z M88.692,50.096c0,2.396-2.421,4.337-5.407,4.337c-2.985,0-5.406-1.94-5.406-4.337v-0.5  v-4.837l-8.438-27.369h8.562l10.716,27.369v4.837h-0.026V50.096L88.692,50.096z"></path></svg></g></g><path fill="#b5dfe8" fill-rule="nonzero" d="M9.09 16.80L9.09 16.80Q7.61 17.64 6.12 17.64Q4.63 17.64 3.52 17.17Q2.40 16.70 1.62 15.88L1.62 15.88Q0 14.19 0 11.50L0 11.50Q0 8.71 1.88 6.86L1.88 6.86Q3.76 4.98 6.70 4.98L6.70 4.98Q7.61 4.98 8.47 5.21L8.47 5.21L8.47 0L11.34 0L11.34 12.53Q11.34 14.09 11.49 14.57Q11.64 15.05 11.82 15.27Q12 15.49 12.28 15.69L12.28 15.69L10.08 17.64Q9.47 17.31 9.09 16.80ZM6.67 14.94L6.67 14.94Q7.65 14.94 8.47 14.57L8.47 14.57L8.47 8.07Q7.65 7.73 6.69 7.73Q5.73 7.73 5.04 7.99Q4.36 8.25 3.87 8.71L3.87 8.71Q2.84 9.67 2.84 11.20L2.84 11.20Q2.84 12.88 3.77 13.88L3.77 13.88Q4.78 14.94 6.67 14.94ZM16.76 17.46L13.08 5.21L16.23 5.21L18.41 14.02L20.75 5.21L23.45 5.21L25.88 14.20L28.05 5.21L30.89 5.21L27.28 17.46L24.25 17.46L21.93 9.43L19.77 17.46L16.76 17.46ZM44.79 17.64L44.79 17.64Q41.48 17.64 39.81 16.43L39.81 16.43Q39.83 16.08 39.88 15.63L39.88 15.63L39.98 14.79Q40.08 13.96 40.10 13.75Q40.13 13.55 40.14 13.53Q40.15 13.51 40.32 13.72Q40.50 13.92 40.99 14.21Q41.48 14.51 42.13 14.73L42.13 14.73Q43.52 15.21 45.04 15.21L45.04 15.21Q47.06 15.21 47.06 13.86L47.06 13.86Q47.06 13.43 46.68 13.22L46.68 13.22Q45.98 12.87 44.64 12.69Q43.30 12.50 42.45 12.15Q41.59 11.80 41.05 11.31L41.05 11.31Q40.05 10.38 40.05 8.88L40.05 8.88Q40.05 7.05 41.46 6.01L41.46 6.01Q42.86 4.98 45.32 4.98L45.32 4.98Q47.75 4.98 49.48 6.36L49.48 6.36Q49.39 6.67 49.30 6.95L49.30 6.95Q49.03 7.72 48.90 8.06L48.90 8.06L48.63 8.75Q48.61 8.85 48.60 8.85L48.60 8.85Q48.57 8.85 48.41 8.60L48.41 8.60Q47.67 7.75 46.11 7.48L46.11 7.48Q45.63 7.38 45.13 7.38L45.13 7.38Q43.00 7.38 43.00 8.67L43.00 8.67Q43.00 9.12 43.44 9.35L43.44 9.35Q44.27 9.80 45.72 10.01Q47.17 10.22 47.92 10.58Q48.67 10.93 49.13 11.44L49.13 11.44Q49.97 12.35 49.97 13.86L49.97 13.86Q49.97 15.52 48.64 16.55L48.64 16.55Q47.26 17.64 44.79 17.64ZM55.86 9.32L55.86 16.15Q55.86 17.16 55.91 17.46L55.91 17.46L52.99 17.46L52.99 0.70L55.86 0.70L55.86 6.13Q57.38 4.98 58.98 4.98L58.98 4.98Q60.95 4.98 62.14 6.28L62.14 6.28Q63.32 7.58 63.32 9.73L63.32 9.73L63.32 14.39Q63.32 16.37 63.38 16.77Q63.43 17.17 63.53 17.29Q63.63 17.40 63.70 17.50L63.70 17.50L63.68 17.54Q62.73 17.46 62.30 17.46L62.30 17.46L61.46 17.46Q61.08 17.46 60.45 17.50L60.45 17.50L60.45 10.71Q60.45 9.09 59.73 8.32L59.73 8.32Q59.19 7.73 58.27 7.73L58.27 7.73Q56.89 7.73 55.86 9.32L55.86 9.32ZM65.78 11.40L65.78 11.40Q65.78 10.11 66.22 8.94Q66.66 7.76 67.48 6.88L67.48 6.88Q69.27 4.98 72.13 4.98L72.13 4.98Q74.98 4.98 76.65 6.77L76.65 6.77Q78.26 8.48 78.26 11.21L78.26 11.21Q78.26 13.95 76.61 15.74L76.61 15.74Q74.86 17.64 71.98 17.64L71.98 17.64Q69 17.64 67.31 15.77L67.31 15.77Q65.78 14.07 65.78 11.40ZM68.63 11.33L68.63 11.33Q68.63 12.07 68.87 12.76Q69.12 13.45 69.57 13.95L69.57 13.95Q70.55 15.01 72.13 15.01L72.13 15.01Q73.59 15.01 74.44 13.97L74.44 13.97Q75.26 12.96 75.26 11.34L75.26 11.34Q75.26 9.70 74.41 8.70L74.41 8.70Q73.51 7.62 71.94 7.62L71.94 7.62Q70.35 7.62 69.45 8.77L69.45 8.77Q68.63 9.82 68.63 11.33ZM83.74 17.21L83.74 17.21L83.74 20.66Q83.74 21.67 83.79 21.97L83.79 21.97L80.87 21.97L80.87 5.21L83.74 5.21L83.74 5.98Q85.16 4.98 86.46 4.98Q87.76 4.98 88.77 5.34Q89.78 5.71 90.54 6.47L90.54 6.47Q92.21 8.12 92.21 11.18L92.21 11.18Q92.21 13.21 91.27 14.80L91.27 14.80Q90.46 16.15 89.03 16.96L89.03 16.96Q87.76 17.67 86.29 17.67Q84.81 17.67 83.74 17.21ZM83.74 8.61L83.74 14.26Q84.63 15.01 86.05 15.01L86.05 15.01Q88.37 15.01 89.05 12.77L89.05 12.77Q89.29 12.01 89.29 11.14Q89.29 10.27 89.12 9.74Q88.96 9.22 88.69 8.84Q88.43 8.46 88.10 8.21Q87.77 7.96 87.43 7.80L87.43 7.80Q86.84 7.54 86.20 7.54Q85.57 7.54 84.89 7.83Q84.21 8.12 83.74 8.61L83.74 8.61Z" transform="translate(36, 9.27)"></path></svg>